<svg width="13" height="14" viewBox="0 0 13 14" fill="none" xmlns="http://www.w3.org/2000/svg">
<path d="M12.0039 7.62891L7.62891 12.0039C7.44661 12.168 7.23698 12.25 7 12.25C6.76302 12.25 6.55339 12.168 6.37109 12.0039C6.20703 11.8216 6.125 11.612 6.125 11.375C6.125 11.138 6.20703 10.9284 6.37109 10.7461L9.26953 7.875H0.875C0.619792 7.875 0.410156 7.79297 0.246094 7.62891C0.0820312 7.46484 0 7.25521 0 7C0 6.74479 0.0820312 6.53516 0.246094 6.37109C0.410156 6.20703 0.619792 6.125 0.875 6.125H9.26953L6.37109 3.25391C6.20703 3.07161 6.125 2.86198 6.125 2.625C6.125 2.38802 6.20703 2.17839 6.37109 1.99609C6.55339 1.83203 6.76302 1.75 7 1.75C7.23698 1.75 7.44661 1.83203 7.62891 1.99609L12.0039 6.37109C12.168 6.55339 12.25 6.76302 12.25 7C12.25 7.23698 12.168 7.44661 12.0039 7.62891Z" fill="#1E552A"/>
</svg>
